<svg width="60" height="60" viewBox="0 0 60 60" fill="none" xmlns="http://www.w3.org/2000/svg">
<circle cx="30" cy="30" r="30" fill="#D9D9D9"/>
<path d="M44.0006 21V29C44.0006 29.2652 43.8952 29.5196 43.7077 29.7071C43.5201 29.8946 43.2658 30 43.0006 30C42.7353 30 42.481 29.8946 42.2934 29.7071C42.1059 29.5196 42.0006 29.2652 42.0006 29V23.4137L31.7081 33.7075C31.6152 33.8005 31.5049 33.8742 31.3835 33.9246C31.2621 33.9749 31.132 34.0008 31.0006 34.0008C30.8691 34.0008 30.739 33.9749 30.6176 33.9246C30.4962 33.8742 30.3859 33.8005 30.2931 33.7075L26.0006 29.4137L17.7081 37.7075C17.5204 37.8951 17.2659 38.0006 17.0006 38.0006C16.7352 38.0006 16.4807 37.8951 16.2931 37.7075C16.1054 37.5199 16 37.2654 16 37C16 36.7346 16.1054 36.4801 16.2931 36.2925L25.2931 27.2925C25.3859 27.1995 25.4962 27.1258 25.6176 27.0754C25.739 27.0251 25.8691 26.9992 26.0006 26.9992C26.132 26.9992 26.2621 27.0251 26.3835 27.0754C26.5049 27.1258 26.6152 27.1995 26.7081 27.2925L31.0006 31.5863L40.5868 22H35.0006C34.7353 22 34.481 21.8946 34.2934 21.7071C34.1059 21.5196 34.0006 21.2652 34.0006 21C34.0006 20.7348 34.1059 20.4804 34.2934 20.2929C34.481 20.1054 34.7353 20 35.0006 20H43.0006C43.2658 20 43.5201 20.1054 43.7077 20.2929C43.8952 20.4804 44.0006 20.7348 44.0006 21Z" fill="black"/>
</svg>
