<svg width="33" height="32" viewBox="0 0 33 32" fill="none" xmlns="http://www.w3.org/2000/svg">
<path d="M25.5006 8V21C25.5006 21.2652 25.3952 21.5196 25.2077 21.7071C25.0201 21.8946 24.7658 22 24.5006 22C24.2353 22 23.981 21.8946 23.7934 21.7071C23.6059 21.5196 23.5006 21.2652 23.5006 21V10.4137L9.20806 24.7075C9.02042 24.8951 8.76592 25.0006 8.50056 25.0006C8.23519 25.0006 7.9807 24.8951 7.79306 24.7075C7.60542 24.5199 7.5 24.2654 7.5 24C7.5 23.7346 7.60542 23.4801 7.79306 23.2925L22.0868 9H11.5006C11.2353 9 10.981 8.89464 10.7934 8.70711C10.6059 8.51957 10.5006 8.26522 10.5006 8C10.5006 7.73478 10.6059 7.48043 10.7934 7.29289C10.981 7.10536 11.2353 7 11.5006 7H24.5006C24.7658 7 25.0201 7.10536 25.2077 7.29289C25.3952 7.48043 25.5006 7.73478 25.5006 8Z" fill="white"/>
</svg>
