<svg width="60" height="60" viewBox="0 0 60 60" fill="none" xmlns="http://www.w3.org/2000/svg">
<circle cx="30" cy="30" r="30" fill="#D9D9D9"/>
<path d="M38.8137 21.0113C37.305 18.425 35.24 17 33 17H27C24.76 17 22.695 18.425 21.1863 21.0113C19.7763 23.4275 19 26.625 19 30C19 33.375 19.7763 36.5725 21.1863 38.9888C22.695 41.575 24.76 43 27 43H33C35.24 43 37.305 41.575 38.8137 38.9888C40.2237 36.5725 41 33.375 41 30C41 26.625 40.2237 23.4275 38.8137 21.0113ZM38.9737 29H34.9737C34.8956 26.948 34.487 24.9219 33.7638 23H37.5875C38.3525 24.6725 38.8575 26.75 38.9737 29ZM36.3988 21H32.8075C32.3898 20.2754 31.8862 19.6039 31.3075 19H33C34.25 19 35.425 19.75 36.3988 21ZM21 30C21 24.0375 23.75 19 27 19C30.25 19 33 24.0375 33 30C33 35.9625 30.25 41 27 41C23.75 41 21 35.9625 21 30ZM33 41H31.3113C31.8899 40.3961 32.3936 39.7246 32.8113 39H36.4025C35.425 40.25 34.25 41 33 41ZM37.5875 37H33.765C34.4883 35.0781 34.8969 33.052 34.975 31H38.975C38.8575 33.25 38.3525 35.3275 37.5875 37Z" fill="black"/>
</svg>
