<svg xmlns="http://www.w3.org/2000/svg" width="17" height="24" viewBox="0 0 17 24" fill="none">
  <path d="M15.592 8.83986C15.5018 8.96872 15.3945 9.07086 15.2764 9.14038C15.1582 9.2099 15.0315 9.2454 14.9036 9.24485C14.8663 9.24478 14.829 9.24144 14.792 9.23485L14.7577 9.22736C14.7322 9.22736 14.7058 9.21485 14.6821 9.20735L14.646 9.19485C14.6205 9.18485 14.5959 9.17234 14.5722 9.16109L14.5423 9.1461C14.5106 9.12735 14.4781 9.10736 14.4473 9.08486C14.4146 9.0599 14.3829 9.03234 14.3524 9.00235L14.3366 8.98486C14.3128 8.95986 14.2891 8.9336 14.2671 8.9061L14.2478 8.8811C14.2267 8.85235 14.2065 8.82361 14.1862 8.79361L14.1713 8.76986C14.018 8.51926 13.9337 8.19822 13.9339 7.8661C13.9336 7.66231 13.9649 7.46093 14.0257 7.27639C14.0865 7.09184 14.1752 6.92868 14.2856 6.7986C14.459 6.5957 14.6764 6.4844 14.901 6.4836C15.1256 6.4843 15.343 6.59561 15.5164 6.7986C15.6267 6.92868 15.7155 7.09184 15.7763 7.27639C15.8371 7.46093 15.8684 7.66231 15.8681 7.8661C15.8683 8.04771 15.8433 8.22759 15.7944 8.39537C15.7455 8.56315 15.6738 8.71548 15.5832 8.8436M11.8819 14.7111C11.9039 14.6886 11.9259 14.6674 11.9488 14.6474L11.9575 14.6386L12.0235 14.5861L12.0393 14.5761L12.1017 14.5361L12.1281 14.5223C12.1466 14.5136 12.1659 14.5023 12.1861 14.4948L12.2231 14.4811L12.274 14.4636L12.3268 14.4523L12.3655 14.4449C12.3973 14.4399 12.4293 14.4374 12.4613 14.4374C12.6861 14.4379 12.9037 14.5497 13.0767 14.7536C13.1873 14.8833 13.2763 15.0464 13.3371 15.2311C13.3979 15.4157 13.4291 15.6172 13.4284 15.8211C13.4291 16.025 13.3979 16.2265 13.3371 16.4112C13.2763 16.5958 13.1873 16.7589 13.0767 16.8886C12.9037 17.0925 12.6861 17.2043 12.4613 17.2049C12.2366 17.2043 12.0189 17.0925 11.8459 16.8886C11.7353 16.7589 11.6463 16.5958 11.5855 16.4112C11.5247 16.2265 11.4935 16.025 11.4942 15.8211C11.4943 15.7659 11.4969 15.7108 11.5021 15.6561V15.6449C11.5187 15.4611 11.5612 15.284 11.627 15.1242C11.6929 14.9644 11.7808 14.8252 11.8855 14.7149M6.98321 11.7486C6.9586 11.7749 6.9331 11.7986 6.90761 11.8211C6.75698 11.9508 6.58432 12.0195 6.40825 12.0198C6.38715 12.0198 6.36692 12.0198 6.3467 12.0198C6.32648 12.0198 6.29132 12.0124 6.26406 12.0074H6.25966C6.23241 12.0074 6.20692 11.9949 6.18054 11.9861C5.98978 11.921 5.81746 11.775 5.68645 11.5673C5.62369 11.469 5.57127 11.3583 5.53084 11.2386C5.48947 11.1161 5.46131 10.9855 5.44732 10.8511C5.43948 10.7825 5.43536 10.7131 5.435 10.6436C5.43501 10.3869 5.48557 10.1353 5.58094 9.91736C5.59765 9.87861 5.617 9.83985 5.63722 9.80235C5.65663 9.76611 5.67747 9.73148 5.69964 9.6986C5.79019 9.56287 5.89927 9.45483 6.0202 9.38111C6.14114 9.30739 6.27139 9.26953 6.40297 9.26985C6.43764 9.26993 6.47228 9.27285 6.50671 9.27861H6.52166C6.55155 9.27861 6.58145 9.2911 6.60958 9.29985H6.61661C6.64814 9.30987 6.67926 9.32239 6.7098 9.33735C6.90317 9.42936 7.07129 9.60547 7.19041 9.84078C7.30953 10.0761 7.3736 10.3587 7.37356 10.6486C7.37382 10.8653 7.33804 11.0791 7.26913 11.2725C7.20022 11.4658 7.10015 11.6332 6.97707 11.7611M8.18152 20.3424C8.35965 20.1115 8.59198 19.9836 8.83298 19.9836C9.09087 19.9836 9.33819 20.1293 9.52054 20.3885C9.7029 20.6478 9.80534 20.9994 9.80534 21.3661C9.80527 21.5744 9.7719 21.78 9.70775 21.9674C9.69193 22.0111 9.67611 22.0536 9.65765 22.0923C9.6187 22.1831 9.57237 22.267 9.51962 22.3423C9.42941 22.4712 9.32211 22.5734 9.20395 22.6429C9.08579 22.7124 8.9591 22.7479 8.83123 22.7473C8.7035 22.7477 8.57698 22.7121 8.45897 22.6426C8.34097 22.5731 8.23383 22.4711 8.14372 22.3423C8.09097 22.267 8.04464 22.1831 8.00569 22.0923C7.98738 22.052 7.97064 22.0103 7.95557 21.9674C7.89143 21.78 7.85807 21.5744 7.85799 21.3661C7.8583 21.313 7.86064 21.26 7.86502 21.2074C7.86502 21.1924 7.86502 21.1761 7.8703 21.1611C7.8703 21.1249 7.87909 21.0873 7.88437 21.0523L7.89316 21.0049C7.90019 20.9686 7.90811 20.9336 7.9169 20.8986L7.92744 20.8599C7.93942 20.8172 7.95292 20.7755 7.96789 20.7348V20.7249C8.00274 20.6306 8.04523 20.5425 8.09449 20.4623C8.11794 20.4241 8.14288 20.3878 8.16921 20.3536L8.17449 20.3474M3.8613 18.2611C3.86119 18.5183 3.81033 18.7704 3.71448 18.9886C3.70393 19.0136 3.6925 19.0374 3.68107 19.0599C3.65891 19.1036 3.63483 19.1454 3.60898 19.1849C3.5436 19.2884 3.46739 19.3769 3.38303 19.4473C3.35859 19.4689 3.33335 19.4885 3.30742 19.5061C3.17655 19.5955 3.03326 19.6421 2.88807 19.6424C2.76037 19.6396 2.6343 19.6011 2.51707 19.529C2.39985 19.457 2.29375 19.3528 2.20484 19.2225C2.11593 19.0921 2.04596 18.9381 1.99892 18.7693C1.95187 18.6005 1.92867 18.4202 1.93065 18.2386C1.93085 18.0316 1.9639 17.8274 2.02736 17.6411C2.03967 17.6049 2.05286 17.5686 2.0678 17.5336C2.15374 17.327 2.27601 17.1558 2.4226 17.0368C2.5692 16.9178 2.73507 16.8551 2.90388 16.8548C2.95336 16.8553 3.00274 16.8612 3.05158 16.8724H3.07005C3.24074 16.9146 3.40039 17.0209 3.53254 17.1802C3.66468 17.3395 3.76452 17.5461 3.82174 17.7786V17.7936C3.83722 17.858 3.84897 17.924 3.8569 17.9911C3.8569 18.0024 3.8569 18.0136 3.8569 18.0261C3.86449 18.0952 3.86861 18.1649 3.86921 18.2348M2.26385 10.5099C2.20571 10.6032 2.13886 10.6848 2.06516 10.7524L2.05549 10.7611C2.02309 10.7895 1.98963 10.8154 1.95527 10.8386L1.93681 10.8511C1.89879 10.8757 1.85973 10.897 1.81987 10.9148H1.80405C1.7691 10.9291 1.73358 10.9404 1.69767 10.9486L1.66602 10.9549C1.62407 10.9631 1.58176 10.9673 1.53941 10.9674C1.31477 10.9672 1.09718 10.8558 0.924 10.6524C0.813669 10.5223 0.724933 10.3591 0.664137 10.1746C0.603342 9.99002 0.571995 9.78864 0.572338 9.58485C0.571934 9.38105 0.603257 9.17964 0.664057 8.99508C0.724857 8.81052 0.813622 8.64737 0.924 8.51735C1.09706 8.31346 1.31466 8.20164 1.53941 8.20111C1.57106 8.20111 1.60272 8.2011 1.63437 8.2086H1.66602L1.72669 8.22235L1.76449 8.23485L1.81635 8.2536L1.8568 8.27235L1.90163 8.29609L1.94296 8.32236L1.98164 8.3486L2.02472 8.38234L2.05725 8.40985L2.10121 8.45234L2.12671 8.47861L2.1733 8.5311L2.18737 8.54861C2.29016 8.67794 2.3724 8.83689 2.42864 9.01492C2.48488 9.19294 2.51381 9.38594 2.51353 9.58109C2.51373 9.91899 2.42642 10.2452 2.26825 10.4973M5.11236 3.68735C5.08451 3.72242 5.05514 3.75499 5.02443 3.78485C4.85951 3.95351 4.66141 4.04405 4.45825 4.0436C4.36023 4.04373 4.26275 4.02309 4.16901 3.98236C4.01863 3.91599 3.88191 3.79842 3.77075 3.63985C3.7266 3.57716 3.68684 3.5085 3.65205 3.43485C3.61756 3.36067 3.58813 3.28198 3.56414 3.19985C3.51382 3.02971 3.48811 2.84692 3.48854 2.66236C3.48799 2.47737 3.51371 2.29413 3.56414 2.12361C3.58811 2.04147 3.61754 1.96277 3.65205 1.8886C3.66948 1.8518 3.68827 1.81633 3.70833 1.78234C3.77596 1.66663 3.85644 1.56741 3.94658 1.48859C3.97494 1.46256 4.00429 1.43878 4.0345 1.41735C4.16598 1.32634 4.31026 1.27889 4.4565 1.27859C4.59176 1.27821 4.72558 1.31817 4.8493 1.3959C4.97302 1.47362 5.0839 1.5874 5.17478 1.72985C5.3389 1.98382 5.42989 2.3162 5.42973 2.6611C5.42968 2.7133 5.42763 2.76546 5.42358 2.81735C5.42358 2.8336 5.42357 2.84861 5.4183 2.86486C5.4183 2.90111 5.40951 2.93861 5.40424 2.97236C5.39896 3.00611 5.39896 3.00486 5.39544 3.02111C5.38841 3.05736 5.3805 3.09235 5.37171 3.12735C5.37171 3.13985 5.36555 3.1536 5.36115 3.16735C5.34964 3.21004 5.33643 3.25179 5.32159 3.29235V3.30361C5.28679 3.39749 5.24429 3.48518 5.19499 3.56486C5.17154 3.60268 5.1466 3.63857 5.12027 3.67236L5.11499 3.67985M9.62687 3.49986C9.65071 3.41763 9.68016 3.33891 9.71479 3.26485C9.74972 3.19134 9.78945 3.1227 9.83348 3.05985C9.94486 2.90168 10.0815 2.78417 10.2317 2.71735C10.3254 2.6762 10.4229 2.65555 10.521 2.6561C10.7149 2.65548 10.9046 2.73778 11.0652 2.89235C11.1972 3.01885 11.3054 3.18954 11.3802 3.3894C11.455 3.58926 11.4942 3.8122 11.4942 4.0386C11.4943 4.2652 11.4552 4.48834 11.3803 4.68842C11.3055 4.8885 11.1973 5.0594 11.0652 5.1861C10.9046 5.34066 10.7149 5.42297 10.521 5.42235C10.4858 5.42235 10.4515 5.42234 10.4172 5.41359H10.4014C10.3718 5.40905 10.3425 5.40196 10.3135 5.39235H10.3056C10.2744 5.38273 10.2436 5.37064 10.2133 5.35611C10.1812 5.34086 10.1498 5.32291 10.1192 5.30236C9.94081 5.18646 9.79103 4.99702 9.68929 4.75861C9.64508 4.65514 9.61078 4.54374 9.58731 4.42736V4.40859C9.57792 4.36009 9.57059 4.31084 9.56534 4.2611C9.56534 4.24735 9.56533 4.23361 9.56094 4.21986C9.55542 4.16185 9.55248 4.1034 9.55215 4.04486C9.552 3.86021 9.57801 3.6774 9.62863 3.50735M14.9036 5.6486C14.6999 5.64974 14.4984 5.70797 14.3105 5.81993C14.1227 5.9319 13.9522 6.09542 13.8088 6.30114C13.6654 6.50686 13.552 6.75072 13.4749 7.01882C13.3979 7.28692 13.3588 7.57399 13.3598 7.8636C13.3598 7.9261 13.3598 7.9886 13.366 8.04985L7.85975 9.8436C7.80603 9.64492 7.73228 9.45839 7.64083 9.28986L9.73501 5.94611C9.97367 6.15171 10.2472 6.26102 10.5263 6.26234C10.9366 6.26135 11.3299 6.02908 11.6199 5.61644C11.91 5.2038 12.0731 4.64448 12.0736 4.06109C12.0731 3.47782 11.91 2.91864 11.6199 2.5062C11.3298 2.09377 10.9365 1.86176 10.5263 1.8611C10.116 1.86176 9.72273 2.09377 9.43265 2.5062C9.14257 2.91864 8.97939 3.47782 8.97893 4.06109C8.97917 4.54682 9.09298 5.01866 9.30246 5.40236L7.20565 8.7386C6.96704 8.53282 6.69348 8.42349 6.4144 8.42236C6.31881 8.42244 6.22342 8.4354 6.12955 8.4611L5.22225 4.58611C5.46228 4.39498 5.66212 4.11631 5.8012 3.77882C5.94028 3.44134 6.01356 3.05724 6.0135 2.6661C6.01303 2.08271 5.8499 1.52338 5.55984 1.11075C5.26979 0.698113 4.87648 0.465836 4.46617 0.464844C4.05585 0.465836 3.66255 0.698113 3.3725 1.11075C3.08244 1.52338 2.91929 2.08271 2.91883 2.6661C2.91929 3.24937 3.08247 3.80857 3.37255 4.221C3.66263 4.63344 4.05593 4.86545 4.46617 4.86611C4.5359 4.86525 4.60551 4.85772 4.67453 4.8436L5.5915 8.75611C5.29425 9.02182 5.06897 9.42272 4.95234 9.89359L3.09291 9.49736C3.07747 8.92927 2.90805 8.3917 2.62011 7.99723C2.33218 7.60276 1.94807 7.38197 1.54821 7.3811C1.13775 7.38176 0.744223 7.61389 0.453978 8.02657C0.163732 8.43924 0.000465384 8.99875 0 9.58235C0.00069795 10.1657 0.164066 10.7249 0.454286 11.1373C0.744506 11.5497 1.1379 11.7817 1.54821 11.7823C1.86908 11.7816 2.18186 11.6392 2.4433 11.3747C2.70475 11.1103 2.90195 10.7368 3.00763 10.3061L4.86706 10.7023C4.87483 10.9932 4.92322 11.2789 5.00941 11.5428C5.09559 11.8068 5.21785 12.0437 5.36907 12.2399L3.53601 16.2174C3.33788 16.0902 3.12303 16.0241 2.90564 16.0236C2.49532 16.0246 2.10204 16.2569 1.81198 16.6695C1.52192 17.0821 1.35878 17.6415 1.35831 18.2249C1.35878 18.8081 1.52195 19.3673 1.81203 19.7798C2.10211 20.1922 2.4954 20.4242 2.90564 20.4248C3.31587 20.4242 3.70918 20.1922 3.99926 19.7798C4.28934 19.3673 4.45252 18.8081 4.45298 18.2249C4.4532 17.6479 4.29335 17.094 4.00813 16.6836L5.85437 12.6711C6.03101 12.7684 6.2188 12.8184 6.40825 12.8186C6.45133 12.8186 6.49617 12.8186 6.53749 12.8086L8.08657 19.4161C7.84655 19.6072 7.6467 19.8859 7.50762 20.2234C7.36854 20.5609 7.29526 20.945 7.29533 21.3361C7.29603 21.9193 7.45926 22.4783 7.74929 22.8906C8.03932 23.303 8.43249 23.5351 8.84266 23.5361C9.25289 23.5354 9.6462 23.3034 9.93628 22.891C10.2264 22.4786 10.3895 21.9194 10.39 21.3361C10.3895 20.7528 10.2264 20.1936 9.93628 19.7812C9.6462 19.3688 9.25289 19.1368 8.84266 19.1361C8.77322 19.137 8.70391 19.1445 8.63518 19.1586L7.09487 12.5899C7.27231 12.4645 7.43134 12.2923 7.56347 12.0824L11.0204 15.0411C10.9558 15.2853 10.9224 15.544 10.9219 15.8048C10.9224 16.3881 11.0855 16.9473 11.3756 17.3598C11.6657 17.7722 12.059 18.0042 12.4692 18.0049C12.8795 18.0042 13.2728 17.7722 13.5628 17.3598C13.8529 16.9473 14.0161 16.3881 14.0165 15.8048C14.0161 15.2216 13.8529 14.6624 13.5628 14.2499C13.2728 13.8375 12.8795 13.6055 12.4692 13.6049C12.2514 13.6051 12.036 13.6709 11.8373 13.798C11.6387 13.9251 11.4612 14.1106 11.3166 14.3424L7.85887 11.3836C7.92207 11.1437 7.95511 10.8898 7.95646 10.6336L13.5154 8.82361C13.6429 9.19151 13.8403 9.50139 14.0851 9.71829C14.3299 9.93519 14.6125 10.0505 14.901 10.0511C15.3112 10.0504 15.7045 9.81843 15.9946 9.406C16.2847 8.99356 16.4479 8.43438 16.4483 7.85111C16.4479 7.26784 16.2847 6.70864 15.9946 6.2962C15.7045 5.88376 15.3112 5.65176 14.901 5.6511" fill="white"/>
</svg>